<?xml version="1.0" encoding="utf-8"?>
<!-- Generator: Adobe Illustrator 27.5.0, SVG Export Plug-In . SVG Version: 6.00 Build 0)  -->
<svg version="1.1" id="Layer_1" xmlns="http://www.w3.org/2000/svg" xmlns:xlink="http://www.w3.org/1999/xlink" x="0px" y="0px"
	 viewBox="0 0 256 256" style="enable-background:new 0 0 256 256;" xml:space="preserve">
<style type="text/css">
	.st0{fill:none;stroke:#000000;stroke-width:8;stroke-linecap:round;stroke-linejoin:round;stroke-miterlimit:10;}
</style>
<g>
	<g>
		<path class="st0" d="M125.072,191.827l8.686-6.752l32.619-25.358c14.673-11.407,27.043-25.281,36.633-40.866
			c9.582-15.579,16.403-32.874,19.97-51.116c-37.124-2.079-73.753,9.344-103.106,32.163l-32.619,25.358l-8.686,6.752"/>
		<circle class="st0" cx="150.01" cy="124.456" r="16.454"/>
		<path class="st0" d="M139.957,86.666l-16.829-3.03c-13.513-2.433-27.423,0.991-38.263,9.418l-42.11,32.737l34.71,5.869"/>
		<path class="st0" d="M184.154,143.517l-1.214,17.058c-0.975,13.696-7.723,26.332-18.563,34.759l-42.11,32.737l2.806-36.243"/>
		
			<rect x="60.405" y="149.188" transform="matrix(0.6138 0.7895 -0.7895 0.6138 167.9659 -13.9962)" class="st0" width="75.764" height="30.955"/>
		
			<rect x="48.763" y="170.661" transform="matrix(0.6138 0.7895 -0.7895 0.6138 172.3753 7.1246)" class="st0" width="60.287" height="18.142"/>
		<path class="st0" d="M33.021,215.402l6.293-23.838c1.026-3.885,3.3-7.326,6.472-9.792h0c7.992-6.213,19.507-4.771,25.72,3.221
			l0.238,0.306l0.238,0.306c6.213,7.992,4.771,19.507-3.221,25.72l0,0c-3.172,2.466-7.068,3.822-11.086,3.858L33.021,215.402z"/>
	</g>
	<g>
		<path class="st0" d="M162.999,43.718c-18.314,3.662-21.283,6.631-24.945,24.945c-3.662-18.314-6.631-21.283-24.945-24.945
			c18.314-3.662,21.283-6.631,24.945-24.945C141.716,37.087,144.685,40.056,162.999,43.718z"/>
	</g>
</g>
</svg>
