<?xml version="1.0" encoding="utf-8"?>
<!-- Generator: Adobe Illustrator 27.5.0, SVG Export Plug-In . SVG Version: 6.00 Build 0)  -->
<svg version="1.1" id="Layer_1" xmlns="http://www.w3.org/2000/svg" xmlns:xlink="http://www.w3.org/1999/xlink" x="0px" y="0px"
	 viewBox="0 0 256 256" style="enable-background:new 0 0 256 256;" xml:space="preserve">
<style type="text/css">
	.st0{fill:none;stroke:#000000;stroke-width:8;stroke-linecap:round;stroke-linejoin:round;stroke-miterlimit:10;}
</style>
<g>
	<path class="st0" d="M128,73.613c-7.871-17.183-23.515-32.465-43.478-32.33c-30.998,0.208-56.021,25.392-56.021,56.39
		c0,15.678,6.53,30.641,18.008,41.312c0,0,81.49,75.732,81.49,75.732l81.49-75.732c11.479-10.671,18.008-25.634,18.008-41.312
		c0-30.998-25.023-56.183-56.021-56.39C151.515,41.148,135.871,56.43,128,73.613z"/>
	<path class="st0" d="M97.115,152.35c-31.862-30.996-39.56-35.988-42.519-48.156c-3.162-13.005,3.364-25.132,13.553-32.522"/>
</g>
</svg>
