<?xml version="1.0" encoding="utf-8"?>
<!-- Generator: Adobe Illustrator 27.5.0, SVG Export Plug-In . SVG Version: 6.00 Build 0)  -->
<svg version="1.1" id="Layer_1" xmlns="http://www.w3.org/2000/svg" xmlns:xlink="http://www.w3.org/1999/xlink" x="0px" y="0px"
	 viewBox="0 0 256 256" style="enable-background:new 0 0 256 256;" xml:space="preserve">
<style type="text/css">
	.st0{fill:none;stroke:#000000;stroke-width:8;stroke-linecap:round;stroke-linejoin:round;stroke-miterlimit:10;}
</style>
<g>
	<path class="st0" d="M128,159.841c4.935,5.703,13.99,10.143,21.209,8.258c3.721-0.972,8.501-5.917,9.745-11.542
		c1.428-6.393-0.233-10.036,1.448-11.901c6.752-7.481,12.679-15.574,13.087-26.193c0.675-17.56-4.812-40.813-21.628-47.432
		c-13.945-5.489-34.387-5.988-48.412,0.386c-16.307,7.411-21.615,29.433-20.936,47.046c0.408,10.619,6.334,18.712,13.087,26.193
		c1.681,1.865,0.019,5.509,1.448,11.901c1.244,5.625,6.024,10.57,9.745,11.542C114.01,169.984,123.064,165.544,128,159.841z"/>
	<path class="st0" d="M106.905,168.953c-2.063,12.555,9.582,18.291,21.095,18.193c11.513,0.098,23.158-5.637,21.095-18.192"/>
	<line class="st0" x1="128" y1="145.446" x2="128" y2="159.841"/>
	<path class="st0" d="M223.834,135.644c-2.696-44.932-22.528-97.359-70.012-111.057c-8.493-2.45-17.188-3.596-25.822-3.555
		c-8.634-0.041-17.329,1.105-25.822,3.555C54.695,38.285,34.862,90.712,32.166,135.644c3.738-8.008,15.211-15.949,24.824-15.263
		c-9.638,9.822-24.202,31.649-9.326,69.434c4.915,12.484,18.222,26.059,30.33,31.838c-2.008-11.525,3.914-24.01,14.111-29.746
		c4.025,18.738,17.35,34.254,35.895,43.061h0c0,0,0,0,0,0c0,0,0,0,0,0h0c18.545-8.807,31.869-24.323,35.895-43.061
		c10.196,5.736,16.119,18.221,14.111,29.746c12.108-5.779,25.415-19.354,30.33-31.838c14.875-37.785,0.312-59.612-9.326-69.434
		C208.622,119.695,220.096,127.636,223.834,135.644z"/>
	<path class="st0" d="M100.579,105.343l18.626,5.653c-0.969,6.317-4.009,24.399-3.622,27.44c0.493,3.877,3.77,6.8,7.675,6.953
		c1.936,0.076,7.545,0.076,9.482,0c3.905-0.153,7.182-3.076,7.675-6.953c0.387-3.041-2.653-21.122-3.622-27.44l18.626-5.653"/>
</g>
</svg>
