<?xml version="1.0" encoding="utf-8"?>
<!-- Generator: Adobe Illustrator 27.5.0, SVG Export Plug-In . SVG Version: 6.00 Build 0)  -->
<svg version="1.1" id="Layer_1" xmlns="http://www.w3.org/2000/svg" xmlns:xlink="http://www.w3.org/1999/xlink" x="0px" y="0px"
	 viewBox="0 0 256 256" style="enable-background:new 0 0 256 256;" xml:space="preserve">
<style type="text/css">
	.st0{fill:none;stroke:#000000;stroke-width:8;stroke-linecap:round;stroke-linejoin:round;stroke-miterlimit:10;}
</style>
<g>
	<path class="st0" d="M191.725,69.63c5.197,9.063,6.445,19.932,0.95,32.376c-4.555,10.292-12.425,15.089-18.219,24.618
		c-3.502,5.756-4.918,12.779-0.205,18.312c5.253,6.166,14.474,6.082,21.507,3.456c7.582-2.822,15.396-0.102,19.914,7.368
		c2.99,4.946,3.884,11.494,2.105,17.883c-4.275,15.285-16.654,29.433-29.368,38.486c-24.878,17.734-57.124,22.857-86.194,12.863
		c-38.682-13.301-65.637-49.589-65.255-90.348c0.577-60.086,56.388-111.081,116.381-92.09c0.047,0.009,0.093,0.028,0.14,0.037
		c7.684,2.45,15.378,5.97,22.075,10.497"/>
	<circle class="st0" cx="108.522" cy="188.028" r="13.77"/>
	<circle class="st0" cx="162.535" cy="187.356" r="13.77"/>
	<circle class="st0" cx="70.85" cy="144.59" r="13.77"/>
	<circle class="st0" cx="86.231" cy="90.951" r="13.77"/>
	<g>
		<path class="st0" d="M158.266,101.373L143.63,86.737l54.202-57.139c4.853-4.853,12.72-4.853,17.573,0l0,0
			c4.853,4.853,4.853,12.72,0,17.573L158.266,101.373z"/>
		<path class="st0" d="M143.63,86.737c0,0-23.291-8.929-30.319,19.184s5.857,45.684,5.857,45.684s3.807-21.963,15.521-22.549
			c11.714-0.586,32.525-5.817,23.577-27.684"/>
		<line class="st0" x1="161.076" y1="70.156" x2="174.847" y2="83.927"/>
	</g>
</g>
</svg>
