<?xml version="1.0" encoding="utf-8"?>
<!-- Generator: Adobe Illustrator 27.5.0, SVG Export Plug-In . SVG Version: 6.00 Build 0)  -->
<svg version="1.1" id="Layer_1" xmlns="http://www.w3.org/2000/svg" xmlns:xlink="http://www.w3.org/1999/xlink" x="0px" y="0px"
	 viewBox="0 0 256 256" style="enable-background:new 0 0 256 256;" xml:space="preserve">
<style type="text/css">
	.st0{fill:none;stroke:#000000;stroke-width:8;stroke-linecap:round;stroke-linejoin:round;stroke-miterlimit:10;}
</style>
<g>
	<path class="st0" d="M193.79,239.153l-0.794-64.454c0,0,35.697-27.189,30.805-78.55c-4.721-49.569-47.234-82.938-95.863-78.985
		c-38.847,3.158-76.623,29.679-74.84,72.009c0.202,4.785,0.935,16.464-1.13,19.941c-0.029,0.049-0.005,0.008-19.418,38.854
		c-2.56,5.123,1.254,11.139,6.979,10.992l14.059-0.361c0,0-1.85,18.091-0.833,32.846c0.698,10.127,9.364,17.838,19.507,17.419
		l24.587-1.016c1.402,3.504,1.493,31.305,1.493,31.305H193.79z"/>
	<g>
		<path class="st0" d="M131.49,130.205h17.095c-0.326,1.001-0.512,2.071-0.512,3.188c0,5.608,4.545,10.153,10.153,10.153
			s10.153-4.545,10.153-10.153c0-1.117-0.186-2.187-0.52-3.188h17.095v-16.948c0.861,0.233,1.753,0.365,2.684,0.365
			c5.608,0,10.153-4.545,10.153-10.153s-4.545-10.153-10.153-10.153c-0.931,0-1.823,0.14-2.684,0.372V76.74H131.49"/>
		<path class="st0" d="M94.994,130.205c-0.248-0.879-0.39-1.803-0.39-2.761c0-5.608,4.546-10.153,10.153-10.153
			c5.607,0,10.153,4.546,10.153,10.153c0,0.959-0.142,1.882-0.39,2.761h16.97v-16.94c0.845,0.228,1.729,0.36,2.646,0.36
			c5.607,0,10.153-4.546,10.153-10.153c0-5.608-4.546-10.153-10.153-10.153c-0.917,0-1.801,0.133-2.646,0.36v-16.94H78.024v53.466
			H94.994z"/>
	</g>
</g>
</svg>
