<?xml version="1.0" encoding="utf-8"?>
<!-- Generator: Adobe Illustrator 27.5.0, SVG Export Plug-In . SVG Version: 6.00 Build 0)  -->
<svg version="1.1" id="Layer_1" xmlns="http://www.w3.org/2000/svg" xmlns:xlink="http://www.w3.org/1999/xlink" x="0px" y="0px"
	 viewBox="0 0 256 256" style="enable-background:new 0 0 256 256;" xml:space="preserve">
<style type="text/css">
	.st0{fill:none;stroke:#000000;stroke-width:8;stroke-linecap:round;stroke-linejoin:round;stroke-miterlimit:10;}
</style>
<g>
	<circle class="st0" cx="94.677" cy="93.69" r="54.039"/>
	<path class="st0" d="M151.497,173.857l20.554-20.554l59.759,59.053c5.669,5.669,5.669,14.861,0,20.531
		c-5.656,5.682-14.848,5.703-20.531,0.047c-0.008-0.008-0.016-0.016-0.023-0.023L151.497,173.857z"/>
	<path class="st0" d="M141.748,152.141c-32.253,25.905-79.398,20.759-105.303-11.494S15.687,61.249,47.939,35.344
		s79.398-20.759,105.303,11.494c22.447,27.948,21.946,67.882-1.194,95.258C148.929,145.752,145.481,149.114,141.748,152.141z"/>
	<line class="st0" x1="155.335" y1="167.969" x2="140.487" y2="153.303"/>
	<line class="st0" x1="166.819" y1="156.805" x2="152.304" y2="142.46"/>
	<g>
		<path class="st0" d="M83.164,65.26c5.285-2.931,12.074-4.278,17.903-2.232c6.826,2.396,11.201,9.896,9.106,17.005
			c-3.614,12.257-20.73,12.967-18.498,29.589"/>
		<g>
			<g>
				<path d="M92.561,129.939c2.354,0,4.609-2.07,4.5-4.5c-0.109-2.438-1.977-4.5-4.5-4.5c-2.354,0-4.609,2.07-4.5,4.5
					C88.17,127.877,90.038,129.939,92.561,129.939L92.561,129.939z"/>
			</g>
		</g>
	</g>
</g>
</svg>
