<?xml version="1.0" encoding="utf-8"?>
<!-- Generator: Adobe Illustrator 27.5.0, SVG Export Plug-In . SVG Version: 6.00 Build 0)  -->
<svg version="1.1" id="Layer_1" xmlns="http://www.w3.org/2000/svg" xmlns:xlink="http://www.w3.org/1999/xlink" x="0px" y="0px"
	 viewBox="0 0 256 256" style="enable-background:new 0 0 256 256;" xml:space="preserve">
<style type="text/css">
	.st0{fill:none;stroke:#000000;stroke-width:8;stroke-linecap:round;stroke-linejoin:round;stroke-miterlimit:10;}
</style>
<g>
	<circle class="st0" cx="128" cy="58.523" r="14.955"/>
	<g>
		<line class="st0" x1="128" y1="205.058" x2="128" y2="73.478"/>
		<line class="st0" x1="128" y1="43.568" x2="128" y2="27.078"/>
		<line class="st0" x1="198.43" y1="58.528" x2="142.95" y2="58.528"/>
		<line class="st0" x1="113.05" y1="58.528" x2="57.57" y2="58.528"/>
		<g>
			<polyline class="st0" points="81.24,123.067 57.57,58.523 33.9,123.067 			"/>
			<path class="st0" d="M89.417,123.067c0,17.588-14.258,31.847-31.847,31.847h0c-17.588,0-31.847-14.258-31.847-31.847H89.417z"/>
		</g>
		<g>
			<polyline class="st0" points="222.1,123.067 198.43,58.523 174.76,123.067 			"/>
			<path class="st0" d="M230.277,123.067c0,17.588-14.258,31.847-31.847,31.847h0c-17.588,0-31.847-14.258-31.847-31.847H230.277z"
				/>
		</g>
		<path class="st0" d="M161.445,228.922h-66.89v-0.121c0-13.112,10.629-23.742,23.742-23.742h19.406
			c13.112,0,23.742,10.629,23.742,23.742V228.922z"/>
	</g>
</g>
</svg>
