<?xml version="1.0" encoding="utf-8"?>
<!-- Generator: Adobe Illustrator 27.5.0, SVG Export Plug-In . SVG Version: 6.00 Build 0)  -->
<svg version="1.1" id="Layer_1" xmlns="http://www.w3.org/2000/svg" xmlns:xlink="http://www.w3.org/1999/xlink" x="0px" y="0px"
	 viewBox="0 0 256 256" style="enable-background:new 0 0 256 256;" xml:space="preserve">
<style type="text/css">
	.st0{fill:none;stroke:#000000;stroke-width:8;stroke-linecap:round;stroke-linejoin:round;stroke-miterlimit:10;}
</style>
<g>
	<g>
		<path class="st0" d="M199.918,89.771c0,9.208-9.528,16.457-12.848,24.464c-3.442,8.301-1.96,20.132-8.215,26.387
			c-6.256,6.256-18.086,4.773-26.387,8.215c-8.007,3.32-15.256,12.848-24.464,12.848c-9.208,0-16.457-9.528-24.464-12.848
			c-8.301-3.442-20.132-1.96-26.387-8.215c-6.256-6.256-4.773-18.086-8.215-26.387c-3.32-8.007-12.848-15.256-12.848-24.464
			c0-9.208,9.528-16.457,12.848-24.464c3.442-8.301,1.96-20.132,8.215-26.387c6.256-6.256,18.086-4.773,26.387-8.215
			c8.007-3.32,15.256-12.848,24.464-12.848c9.208,0,16.457,9.528,24.464,12.848c8.301,3.442,20.132,1.96,26.387,8.215
			c6.256,6.256,4.773,18.086,8.215,26.387C190.39,73.314,199.918,80.562,199.918,89.771z"/>
	</g>
	<circle class="st0" cx="128.003" cy="89.771" r="46.236"/>
	<polyline class="st0" points="80.696,144.154 52,215.294 84.79,201.354 98.73,234.144 128.01,161.584 128.01,161.574 	"/>
	<polyline class="st0" points="128.01,161.574 128.01,161.584 157.28,234.144 171.22,201.354 204,215.294 175.038,143.503 	"/>
	<polygon class="st0" points="128.003,62.398 136.897,80.419 156.785,83.309 142.394,97.336 145.791,117.144 128.003,107.792 
		110.215,117.144 113.613,97.336 99.222,83.309 119.109,80.419 	"/>
</g>
</svg>
