<?xml version="1.0" encoding="utf-8"?>
<!-- Generator: Adobe Illustrator 27.5.0, SVG Export Plug-In . SVG Version: 6.00 Build 0)  -->
<svg version="1.1" id="Layer_1" xmlns="http://www.w3.org/2000/svg" xmlns:xlink="http://www.w3.org/1999/xlink" x="0px" y="0px"
	 viewBox="0 0 256 256" style="enable-background:new 0 0 256 256;" xml:space="preserve">
<style type="text/css">
	.st0{fill:none;stroke:#000000;stroke-width:8;stroke-linecap:round;stroke-linejoin:round;stroke-miterlimit:10;}
</style>
<g>
	<g>
		<path class="st0" d="M116.486,95.555c2.317-7.409,2.811-8.632,2.811-8.632"/>
		<path class="st0" d="M137.569,86.923c0,0,0.493,2.174,2.424,8.425"/>
		<path class="st0" d="M116.486,95.555C64.671,74.049,72.243,20.523,72.243,20.523S32.086,61.648,72.219,92.02h0
			c-5.275,1.451-10.837,1.497-16.135,0.135l-0.275-0.071c0,0,18.04,34.025,55.92,26.237l5.555,11.874
			c-4.634,1.781-16.292,9.184-16.02,24.647c0.229,12.952,9.119,16.471,9.119,16.471s-1.137-13.374,6.508-14.576
			c0,0-2.038,15.884,11.557,25.504"/>
		<path class="st0" d="M139.994,95.348c51.815-21.507,43.763-74.824,43.763-74.824s40.156,41.125,0.024,71.497l0,0
			c5.275,1.451,10.837,1.497,16.135,0.135l0.275-0.071c0,0-17.33,34.166-55.209,26.378l-5.907,11.512
			c4.634,1.788,16.828,9.405,16.557,24.867c-0.229,12.952-9.126,16.471-9.126,16.471s1.144-13.374-6.501-14.576
			c0,0,2.031,15.884-11.557,25.504"/>
		<path class="st0" d="M119.3,86.922c0,0,1.884-4.393,1.193-7.883c-0.817-4.129-5.584-6.405-10.839-5.419
			c0,0-3.941-5.584,9.689-6.24c0,0,3.12-6.405,10.346-4.762c7.226,1.642,7.554,7.554,10.674,5.419
			c3.12-2.135-3.613,5.748-4.434,6.733c-0.821,0.985,0.066,6.819,1.642,12.152"/>
	</g>
	<path class="st0" d="M176.831,235.023c-11.493,2.028-23.884-2.827-30.196-12.966c-5.94-9.542-6.239-25.985,3.68-33.144
		c0.081-0.059,0.313-0.222,0.579-0.391c-0.382,1.469-0.389,0.792-0.619,2.336c-1.767,11.851,12.261,14.892,17.079,6.825
		c2.508-4.2,0.151-8.926-1.413-12.995c-0.612-1.592-1.237-3.265-1.23-4.995c0.033-7.797,4.83-14.411,11.661-17.226
		c2.42-0.997,4.938-1.746,7.491-2.313c2.155-0.479,10.01-0.833,12.555-0.879c0,0-15.016,9.723-7.605,23.304
		c5.168,9.471,14.208,16.555,12.614,28.407C199.791,223.134,188.585,232.949,176.831,235.023z"/>
	<path class="st0" d="M54.644,210.987c-1.595-11.852,7.446-18.936,12.614-28.407c7.411-13.581-7.605-23.304-7.605-23.304
		c2.545,0.046,10.4,0.4,12.555,0.879c2.554,0.567,5.071,1.316,7.491,2.313c6.831,2.815,11.628,9.429,11.661,17.226
		c0.007,1.73-0.618,3.403-1.23,4.995c-1.564,4.069-3.922,8.795-1.413,12.995c4.819,8.067,18.846,5.025,17.079-6.825
		c-0.23-1.544-0.237-0.867-0.619-2.336c0.266,0.169,0.498,0.332,0.579,0.391c9.919,7.159,9.62,23.602,3.68,33.144
		c-6.312,10.139-18.703,14.994-30.196,12.966C67.485,232.949,56.279,223.134,54.644,210.987z"/>
</g>
</svg>
