<?xml version="1.0" encoding="utf-8"?>
<!-- Generator: Adobe Illustrator 27.5.0, SVG Export Plug-In . SVG Version: 6.00 Build 0)  -->
<svg version="1.1" id="Layer_1" xmlns="http://www.w3.org/2000/svg" xmlns:xlink="http://www.w3.org/1999/xlink" x="0px" y="0px"
	 viewBox="0 0 256 256" style="enable-background:new 0 0 256 256;" xml:space="preserve">
<style type="text/css">
	.st0{fill:none;stroke:#000000;stroke-width:8;stroke-linecap:round;stroke-linejoin:round;stroke-miterlimit:10;}
</style>
<g>
	<path class="st0" d="M40.961,144.906l19.365,18.138l52.382,49.066c4.177,3.58,10.37,3.476,14.424-0.244l0,0
		c4.666-4.281,4.699-11.629,0.072-15.952l-26.095-24.384"/>
	<path class="st0" d="M132.561,168.058l20.276,20.469c4.552,4.595,4.406,12.043-0.323,16.457l0,0
		c-4.486,4.187-11.472,4.101-15.855-0.194l-9.456-8.876"/>
	<path class="st0" d="M154.277,157.534l20.276,20.469c4.552,4.595,4.406,12.043-0.323,16.457l0,0
		c-4.486,4.187-11.472,4.101-15.855-0.194l-0.878-0.861"/>
	<path class="st0" d="M128.493,93.435l66.464,72.693c4.552,4.595,4.406,12.043-0.323,16.457l0,0
		c-4.486,4.187-11.472,4.101-15.855-0.194l-4.227-4.388"/>
	<line class="st0" x1="78.861" y1="62.405" x2="107.918" y2="69.789"/>
	<path class="st0" d="M178.215,64.676l-15.319,2.387l-31.459-1.544c-10.302-0.31-17.943,0.558-24.376,6.835l-4.975,4.855
		l-24.804,26.509c-5.004,5.601-4.677,14.158,0.74,19.361l0,0c5.273,5.064,13.561,5.2,18.997,0.311l31.474-29.955"/>
	<line class="st0" x1="214.906" y1="142.844" x2="191.772" y2="159.16"/>
	
		<rect x="194.919" y="44.131" transform="matrix(-0.9116 0.4111 -0.4111 -0.9116 445.6037 93.555)" class="st0" width="35.648" height="101.111"/>
	
		<rect x="25.433" y="45.897" transform="matrix(0.9116 0.4111 -0.4111 0.9116 43.4707 -9.2555)" class="st0" width="35.648" height="101.111"/>
	<path class="st0" d="M158.375,194.266l-5.538-5.739"/>
</g>
</svg>
